<svg width="40" height="40" viewBox="0 0 40 40" fill="none" xmlns="http://www.w3.org/2000/svg">
<rect x="0.625" y="0.625" width="38.75" height="38.75" rx="9.375" fill="#F4F6FF"/>
<rect x="0.625" y="0.625" width="38.75" height="38.75" rx="9.375" stroke="#F4F6FF" stroke-width="1.25"/>
<mask id="mask0_576_863" style="mask-type:luminance" maskUnits="userSpaceOnUse" x="9" y="8" width="17" height="20">
<path d="M9.26465 8.99805V27.7212H25.1864V8.99861L9.26465 8.99805Z" fill="white"/>
</mask>
<g mask="url(#mask0_576_863)">
<path d="M25.1093 18.0667L22.7497 19.5305L18.8754 26.9253L18.849 26.9758L18.7956 26.9974L17.0486 27.6907L16.9683 27.7219L16.8995 27.6725L16.4475 27.348C15.9199 26.9668 15.0136 26.3052 14.2095 25.6823C13.3962 25.0519 12.6954 24.4619 12.6036 24.2355C12.4114 23.7561 9.3246 17.7252 9.316 17.7076L9.3137 17.7019H9.31198C9.30854 17.6934 9.15712 17.1034 9.41465 16.784C9.41465 16.784 18.5146 9.12359 18.6563 9.06005C18.9901 8.90913 19.3761 9.08104 19.3778 9.08217C19.3778 9.08217 24.0373 11.8894 24.8604 12.4051C25.2481 12.648 25.1815 13.1938 25.1815 13.1938V17.9357H25.0267L25.1093 18.0667Z" fill="#141414"/>
</g>
<path d="M15.1448 20.9027C14.9062 20.825 13.9621 20.2372 13.692 20.0738C13.2349 19.7981 12.3132 19.4577 13.0117 18.8869C13.44 18.5399 13.86 18.1829 14.2713 17.8163C15.6128 16.6079 15.5061 16.8235 17.209 17.843C18.4014 18.5567 18.4995 18.4591 17.2755 19.587L16.6561 20.1317C16.3366 20.3904 15.7975 21.116 15.1448 20.9027Z" fill="#F5F5F5"/>
<path d="M11.8205 18.8618C11.4856 18.7205 10.822 18.1691 10.5048 17.937C9.6261 17.2948 9.2487 17.2749 10.6069 16.1981C11.3135 15.6387 12.1021 14.6623 12.7405 14.9579L14.0711 15.8616C14.7009 16.2928 15.1425 16.4108 14.4783 17.0633L12.6739 18.6519C12.483 18.8119 12.1646 19.0065 11.8205 18.8618Z" fill="#1560BD"/>
<path d="M15.1808 15.8268C14.7638 15.6192 14.2689 15.2391 13.8588 14.9599C13.3661 14.624 12.7392 14.379 13.4424 13.8133L15.2232 12.3013C15.896 11.7595 16.5413 12.4698 17.405 13.006C18.3388 13.5858 18.4741 13.6641 17.2307 14.6456C16.5728 15.1647 15.8484 16.1599 15.1808 15.8268Z" fill="#1560BD"/>
<path d="M20.4405 16.8037C19.9903 17.0188 19.0026 17.2122 18.7336 17.4919C18.7428 17.7642 18.8139 17.7699 19.0107 17.8879C18.2995 17.8703 18.6046 17.9589 17.6594 17.3932C16.2364 16.5422 15.7036 16.5615 16.8679 15.5987C17.2258 15.3019 17.5424 14.978 17.9014 14.7079C18.2123 14.4748 18.5478 13.959 19.2137 14.1865C19.4489 14.2665 20.1945 14.7465 20.4354 14.8889C21.3049 15.4007 21.8824 15.5453 20.9412 16.3135C20.838 16.3986 20.8024 16.4401 20.7049 16.532C20.6407 16.5921 20.62 16.6023 20.5701 16.6494L20.5157 16.7033C20.4486 16.7793 20.499 16.7033 20.4405 16.8037Z" fill="#1560BD"/>
<path d="M21.8147 14.995C21.5899 14.9332 20.1095 14.0594 19.7671 13.8348C19.1207 13.4104 20.0155 12.9202 20.5781 12.4232C20.7106 12.3063 20.7364 12.2694 20.8758 12.1645C20.9951 12.0748 21.0261 12.0238 21.1419 11.9251C21.2647 11.8212 21.3295 11.7866 21.4482 11.6737C22.1107 11.044 22.7685 11.6431 23.6443 12.1628C24.9016 12.9088 24.8213 12.8555 23.778 13.7837C23.6799 13.8716 23.6288 13.9471 23.5233 14.0345L22.6584 14.7907C22.4531 14.9893 22.1583 15.0886 21.8147 14.995Z" fill="#F5F5F5"/>
<path d="M18.4429 12.9479C17.976 12.721 17.5608 12.4214 17.1398 12.1627C16.6706 11.8734 16.0168 11.6351 16.6723 11.0711C17.0377 10.7574 17.4139 10.4436 17.8011 10.1225C18.1114 9.86494 18.5949 9.24312 19.2562 9.50751C19.5504 9.62495 20.2415 10.0851 20.5673 10.2734C21.1925 10.6377 21.7563 10.8198 20.6855 11.6226C19.9875 12.1446 19.1902 13.3122 18.4429 12.9479Z" fill="#1560BD"/>
<path d="M15.8788 23.8873C15.5863 23.8714 14.0716 22.8587 13.8026 22.6317C13.4074 22.2987 13.2078 21.5481 12.9933 20.962C12.6279 19.9646 12.8883 20.1961 13.927 20.8429C14.8407 21.4125 15.471 21.5952 15.6402 22.478C15.6964 22.7707 15.9092 23.641 15.8788 23.8873Z" fill="#1560BD"/>
<path d="M11.9599 19.618C12.3091 20.0458 12.3545 20.2557 12.5391 20.7612C12.6475 21.0562 12.9682 21.8068 12.9882 22.0843C12.7032 22.0332 11.3249 20.9212 11.0479 20.524C10.912 20.33 9.85664 18.2603 9.95242 18.165C10.1761 17.9437 11.8669 19.5045 11.9599 19.618Z" fill="#1560BD"/>
<path d="M13.751 22.9962C14.0704 22.9616 15.1189 23.7616 15.4131 23.955C15.6431 24.1065 15.9758 24.3675 16.0584 24.6313C16.1157 24.8168 16.2626 25.568 16.2648 25.7535C16.028 25.7286 14.9457 24.9309 14.6687 24.7453C14.3417 24.5252 14.2442 24.439 14.0917 24.0061C13.981 23.694 13.79 23.2725 13.751 22.9962Z" fill="#1560BD"/>
<path d="M11.4639 21.2803C11.6635 21.3518 12.6695 22.1665 12.9086 22.3594C13.2814 22.6618 13.6531 23.5219 13.7323 24.0455C13.5269 24.0126 12.4601 23.1446 12.2967 22.9664C12.1303 22.7849 11.465 21.5991 11.4639 21.2803Z" fill="#F5F5F5"/>
<path d="M14.4209 24.8683C14.6687 24.8558 16.1674 25.9338 16.3297 26.1754C16.4536 26.361 16.5184 26.8256 16.5247 27.0855C16.2901 27.0616 15.4653 26.4007 15.2135 26.2242C14.7467 25.8969 14.5769 25.595 14.4209 24.8683Z" fill="#1560BD"/>
<path d="M12.4287 23.3047C12.6421 23.3671 13.3062 23.9537 13.554 24.1404C13.7903 24.318 13.8769 24.377 13.9888 24.6607C14.0628 24.8479 14.2228 25.232 14.24 25.3971C14.0754 25.3784 13.269 24.7123 13.1216 24.5699C12.9621 24.4167 12.8503 24.2391 12.7356 23.998C12.6426 23.8028 12.4614 23.5214 12.4287 23.3047Z" fill="#F5F5F5"/>
<path d="M18.1358 17.7478C18.1358 17.7478 18.1358 17.745 18.1375 17.7399L18.1599 17.6236H18.1748C18.2396 17.4579 18.4042 17.1697 18.7862 17.0386C19.1963 16.8968 20.1226 16.5706 21.2094 16.187C23.4807 15.3859 26.4643 14.3335 27.1767 14.1134C27.3763 14.0515 27.6011 14.0595 27.698 14.1083C27.7955 14.1571 30.3042 15.4166 30.5772 15.6872C30.8669 15.9754 30.6707 16.5218 30.6633 16.5416L30.6558 16.5649C30.4924 17.1011 28.2389 24.4794 27.8712 25.7957C27.7909 26.0828 27.5191 26.3733 27.5191 26.3733L19.4119 30.9427C19.4119 30.9427 19.3339 30.9994 19.1751 30.9994C19.0168 30.9994 18.9124 30.9438 18.9124 30.9438C18.9124 30.9438 16.04 29.4755 16.04 29.1612C16.04 28.6988 18.1289 17.7813 18.1352 17.749L18.1358 17.7478Z" fill="#141414"/>
<path d="M20.2271 22.7603C19.9983 22.6848 19.2268 22.1702 18.9808 22.0244C17.5842 21.1972 17.7522 21.3152 18.1136 19.4146C18.2019 18.9482 18.1996 17.9497 18.8345 18.1766C19.0536 18.2549 19.8268 18.7536 20.09 18.9074C20.4611 19.1252 21.0702 19.3698 21.1803 19.831C21.2584 20.1601 20.8741 21.8145 20.7714 22.3387C20.7112 22.6456 20.5896 22.8788 20.2271 22.7603Z" fill="#1560BD"/>
<path d="M19.4385 26.6216C19.0393 26.4356 18.5615 26.1122 18.1876 25.8835C16.7858 25.028 17.0135 25.1817 17.3639 23.3021C17.446 22.8641 17.4368 21.8894 18.0568 22.1333C18.3682 22.2565 18.9641 22.6763 19.2957 22.8681C20.6859 23.6714 20.5225 23.5511 20.1445 25.4574C20.0527 25.9198 20.0401 26.9019 19.4385 26.6216Z" fill="#F5F5F5"/>
<path d="M18.7497 30.4958C18.3001 30.2847 17.4214 29.7026 16.9006 29.3838C16.1062 28.8975 16.3385 28.6116 16.6041 27.2346C16.9706 25.3329 16.7704 25.7505 19.1065 27.0956C19.9152 27.5609 19.6307 28.1515 19.3818 29.2924C19.2877 29.7259 19.2596 30.7346 18.7491 30.4952" fill="#F5F5F5"/>
<path d="M21.1982 23.0527C20.9452 22.8825 21.2997 21.7897 21.3714 21.476C21.7591 19.7751 21.6123 19.7251 23.018 19.1839C23.2417 19.0971 24.3212 18.6148 24.4881 18.7187C24.7668 18.8917 23.926 21.6178 23.8193 21.788C23.5612 22.2005 23.092 22.3196 22.5965 22.5466C22.3539 22.6572 21.3874 23.1797 21.1982 23.0527Z" fill="#1560BD"/>
<path d="M21.5357 19.1104C21.016 19.0179 20.5486 18.6866 20.1448 18.4466C18.5366 17.4883 18.158 17.5621 19.9584 16.9494C21.6905 16.3593 21.3544 16.2929 22.9604 17.1684C24.7814 18.1601 24.6282 18.0625 23.0521 18.7116C22.6208 18.8891 22.0639 19.2051 21.5357 19.1104Z" fill="#F5F5F5"/>
<path d="M20.2695 26.9181C20.1067 26.7422 20.6389 24.3576 20.9601 23.9429C21.2681 23.5463 23.3575 22.617 23.5141 22.7685C23.6759 22.9256 23.3036 24.053 23.2434 24.2947C23.1184 24.7956 23.0421 25.3698 22.7329 25.7022C22.5115 25.9411 22.5247 25.9303 22.2001 26.0784C21.8204 26.2526 20.4307 27.0923 20.2695 26.9181Z" fill="#1560BD"/>
<path d="M24.4752 21.5667C24.2784 21.3772 24.638 20.3673 24.708 20.0995C24.8027 19.7364 24.9512 18.9858 25.1158 18.6897C25.3825 18.208 25.6607 18.1581 26.2021 17.9481C26.4161 17.8653 27.4152 17.395 27.5637 17.5419C27.7318 17.707 27.0051 20.1075 26.8663 20.373C26.6294 20.8291 26.3151 20.8825 25.7897 21.1208C25.4519 21.2734 24.6426 21.7273 24.4752 21.5667Z" fill="#1560BD"/>
<path d="M22.3189 16.2293C22.4681 15.9768 23.2441 15.789 23.5979 15.6642C24.9452 15.1904 24.7909 15.2886 26.242 16.0795C26.4634 16.1998 26.6229 16.2968 26.8288 16.4057C27.8124 16.9277 27.2842 16.9776 26.1508 17.4445C24.8374 17.9858 24.8535 17.819 23.4265 17.0065C23.1047 16.8233 22.4245 16.5617 22.3189 16.2293Z" fill="#1560BD"/>
<path d="M22.5838 26.4707C22.6836 26.7164 22.3922 27.6281 22.3188 27.9152C22.1949 28.3991 22.094 28.9313 21.8198 29.2383C21.6391 29.4414 21.0254 29.7602 20.6997 29.9401C20.5035 30.0479 19.6581 30.6243 19.4573 30.5148C19.2411 30.3968 19.4333 29.9764 19.4757 29.7863C19.9701 27.5702 19.7596 27.8165 21.2548 27.012C21.5135 26.8724 22.2436 26.3964 22.5838 26.4707Z" fill="#1560BD"/>
<path d="M26.5185 21.398C26.5799 21.7583 25.9513 23.8433 25.7603 24.1213C25.5114 24.4805 25.1587 24.5877 24.6895 24.8265C23.1879 25.5913 23.274 25.6152 23.7271 23.8768C24.0999 22.4448 23.9708 22.3949 25.2344 21.8377C25.4976 21.7209 26.2169 21.2687 26.5191 21.398" fill="#1560BD"/>
<path d="M27.4136 20.3099C27.2289 20.0245 27.5266 19.363 27.6281 19.0101C27.7486 18.5953 27.8667 18.0722 28.0101 17.6779C28.1925 17.1781 28.442 17.076 28.9381 16.8836C30.5555 16.2573 30.5263 16.1018 30.0084 17.7369C29.5507 19.1808 29.76 19.3397 28.6623 19.8373C28.3927 19.9593 27.674 20.3371 27.4136 20.3099Z" fill="#1560BD"/>
<path d="M22.564 28.7362C22.4464 28.6414 23.0021 26.4497 23.2746 26.0923C23.5166 25.7746 23.9502 25.631 24.3316 25.4279C24.5192 25.3286 25.3514 24.8231 25.4862 24.9514C25.633 25.0904 25.2814 26.069 25.2149 26.3039C24.8381 27.644 24.9952 27.5226 23.7162 28.2443C23.5103 28.3606 22.7452 28.8814 22.5634 28.7362" fill="#1560BD"/>
<path d="M25.4268 15.045C25.6453 14.9021 26.2968 14.7171 26.6306 14.594C27.6688 14.2105 27.7921 14.3665 29.0384 15.0649C29.238 15.1767 29.3808 15.2578 29.597 15.3645C29.8161 15.4717 30.0559 15.6328 30.0559 15.7729C30.0559 15.9125 29.2305 16.1797 28.9139 16.3074C28.4006 16.5145 28.158 16.679 27.538 16.4033C27.179 16.2433 26.7534 15.98 26.4213 15.7962C25.9017 15.5086 25.4663 15.3809 25.4268 15.045Z" fill="#F5F5F5"/>
<path d="M29.1648 20.1427C29.2658 20.4292 28.5437 22.5449 28.4691 22.6754C28.2282 23.0924 27.973 23.1531 27.5164 23.3879C27.2721 23.5128 26.6091 23.894 26.3647 23.877C26.2242 23.5831 26.5162 22.9244 26.6091 22.5999C27.0215 21.1554 26.885 21.0845 27.9609 20.6017C28.2276 20.4825 28.8987 20.0865 29.1648 20.1427Z" fill="#1560BD"/>
<path d="M25.3708 27.1905C25.3249 26.9097 25.9001 24.9608 26.059 24.7186C26.3808 24.2278 27.9988 23.5163 28.0968 23.5714C28.266 23.6667 28.0882 24.0003 28.0383 24.1637C27.9798 24.3554 27.9093 24.5699 27.8468 24.7764C27.7355 25.1458 27.6145 25.6978 27.4373 25.9837C27.2187 26.3372 25.747 27.2075 25.3708 27.1905Z" fill="#1560BD"/>
</svg>
