<svg width="40" height="40" viewBox="0 0 40 40" fill="none" xmlns="http://www.w3.org/2000/svg">
<rect width="40" height="40" rx="10" fill="#E31624"/>
<path d="M22.1828 11.1843C22.1828 12.3926 21.2046 13.3708 19.998 13.3708C18.7914 13.3708 17.8115 12.3926 17.8115 11.1843C17.8115 9.97605 18.7897 8.99951 19.998 8.99951C21.2062 8.99951 22.1828 9.97605 22.1828 11.1843Z" fill="white"/>
<path d="M29.487 13.9335C24.1707 16.5636 20.4896 24.3974 20.4863 30.9882C20.3241 30.9981 20.1619 31.0014 19.9997 31.0014C19.8375 31.0014 19.672 30.9965 19.5114 30.9882C19.5065 24.3974 15.8254 16.5636 10.5107 13.9335C10.6382 13.6075 10.7805 13.2864 10.9378 12.9785C13.5976 14.6171 16.696 15.5556 19.9997 15.5556C23.3034 15.5556 26.4002 14.6188 29.06 12.9785C29.2172 13.288 29.3612 13.6058 29.487 13.9319V13.9335Z" fill="white"/>
</svg>
