<svg width="40" height="40" viewBox="0 0 40 40" fill="none" xmlns="http://www.w3.org/2000/svg">
<rect width="40" height="40" rx="10" fill="#F4F6FF"/>
<g clip-path="url(#clip0_576_374)">
<path d="M24.1693 15.8337C21.3114 15.8337 18.8734 17.632 17.9254 20.1589L19.4864 20.7442C20.1974 18.8491 22.0258 17.5003 24.1693 17.5003C24.7512 17.5003 25.3099 17.5997 25.8293 17.7825C27.7747 18.467 29.1693 20.3208 29.1693 22.5003C29.1693 25.2617 26.9307 27.5003 24.1693 27.5003H15.8359C13.0745 27.5003 10.8359 25.2617 10.8359 22.5003C10.8359 20.3208 12.2305 18.467 14.176 17.7825C14.1715 17.689 14.1693 17.5949 14.1693 17.5003C14.1693 14.2787 16.7809 11.667 20.0026 11.667C22.7043 11.667 24.977 13.5037 25.6403 15.9965C25.167 15.8899 24.6747 15.8337 24.1693 15.8337Z" fill="black"/>
<path d="M24.1693 15.8337C21.3114 15.8337 18.8734 17.632 17.9254 20.1589L19.4864 20.7442C20.1974 18.8491 22.0258 17.5003 24.1693 17.5003C24.7512 17.5003 25.3099 17.5997 25.8293 17.7825C27.7747 18.467 29.1693 20.3208 29.1693 22.5003C29.1693 25.2617 26.9307 27.5003 24.1693 27.5003H15.8359C13.0745 27.5003 10.8359 25.2617 10.8359 22.5003C10.8359 20.3208 12.2305 18.467 14.176 17.7825C14.1715 17.689 14.1693 17.5949 14.1693 17.5003C14.1693 14.2787 16.7809 11.667 20.0026 11.667C22.7043 11.667 24.977 13.5037 25.6403 15.9965C25.167 15.8899 24.6747 15.8337 24.1693 15.8337Z" fill="url(#paint0_linear_576_374)"/>
</g>
<defs>
<linearGradient id="paint0_linear_576_374" x1="14.8464" y1="15.1305" x2="25.552" y2="30.2812" gradientUnits="userSpaceOnUse">
<stop stop-color="#488EFF"/>
<stop offset="1" stop-color="#0F3D85"/>
</linearGradient>
<clipPath id="clip0_576_374">
<rect width="20" height="20" fill="white" transform="translate(10 10)"/>
</clipPath>
</defs>
</svg>
